<?xml version="1.0" encoding="UTF-8"?><svg id="Layer_1" xmlns="http://www.w3.org/2000/svg" viewBox="0 0 300 300"><defs><style>.cls-1{fill:#e42b31;}</style></defs><path class="cls-1" d="M287.92,130.48c-35.79-.65-77.57,2.33-117.74,6.71,36.09-44.74,65.72-80.61,71.26-85.02,4.03-2.74,5.17-8.21,2.51-12.33-2.7-4.18-8.27-5.38-12.44-2.68-2.72,1.76-8.2,5.3-79.79,94.24-8.15-60-14.46-115.79-14.53-116.38-.56-4.94-5.01-8.49-9.95-7.93-4.94.56-8.49,5.01-7.93,9.95.07.59,6.4,56.51,14.57,116.7-26.12-12.16-49.52-23.02-63.47-29.5-.29-.14-29.29-13.95-43.9-26.11-3.82-3.18-9.49-2.66-12.67,1.16-3.18,3.82-2.66,9.5,1.16,12.67,16.37,13.62,46.44,27.94,47.77,28.57,15.8,7.33,33.24,15.44,51.06,23.73-55.83,7.89-99.5,16.52-104.48,18.14-4.99,1.61-7.73,6.97-6.11,11.96,1.3,4.02,5.03,6.58,9.04,6.58.94,0,1.9-.14,2.85-.44,4.19-1.19,52.24-10.73,112.41-18.94-40.4,50.53-77.91,98.21-78.31,98.71-3.07,3.91-2.4,9.56,1.51,12.64,1.65,1.3,3.61,1.93,5.56,1.93,2.66,0,5.3-1.18,7.08-3.44,22.32-28.37,49.74-62.98,76.36-96.27,15.17,102.82,22.02,110.98,25.09,114.63,1.78,2.12,4.33,3.21,6.89,3.21,2.05,0,4.1-.69,5.79-2.11,3.78-3.18,4.29-8.8,1.16-12.6-1.85-2.68-8.55-18.8-22.35-114.21,56.15,26.17,106.3,49.66,110.48,51.96,1.44.86,3.03,1.27,4.6,1.27,3.01,0,5.95-1.51,7.66-4.26,2.62-4.22,1.32-9.77-2.9-12.39-2.79-1.73-47.7-22.8-96.14-45.4,36.76-3.83,74.59-6.35,107.61-5.75,5.23.05,9.57-4.08,9.67-9.33.09-5.25-4.08-9.57-9.33-9.67Z"/></svg>